HIERARCHY
ROOT hip
{
  OFFSET 0 0 0
  CHANNELS 6 Xposition Yposition Zposition Zrotation Yrotation Xrotation
  JOINT abdomen
  {
    OFFSET 0 20.6881 -0.73152
    CHANNELS 3 Zrotation Xrotation Yrotation
    JOINT chest
    {
      OFFSET 0 11.7043 -0.48768
      CHANNELS 3 Zrotation Xrotation Yrotation
      JOINT neck
      {
        OFFSET 0 22.1894 -2.19456
        CHANNELS 3 Zrotation Xrotation Yrotation
        JOINT head
        {
          OFFSET -0.24384 7.07133 1.2192
          CHANNELS 3 Zrotation Xrotation Yrotation
          JOINT leftEye
          {
            OFFSET 4.14528 8.04674 8.04672
            CHANNELS 3 Zrotation Xrotation Yrotation
            End Site
            {
              OFFSET 1 0 0
            }
          }
          JOINT rightEye
          {
            OFFSET -3.6576 8.04674 8.04672
            CHANNELS 3 Zrotation Xrotation Yrotation
            End Site
            {
              OFFSET 1 0 0
            }
          }
        }
      }
      JOINT rCollar
      {
        OFFSET -2.68224 19.2634 -4.8768
        CHANNELS 3 Zrotation Xrotation Yrotation
        JOINT rShldr
        {
          OFFSET -8.77824 -1.95073 1.46304
          CHANNELS 3 Zrotation Xrotation Yrotation
          JOINT rForeArm
          {
            OFFSET -28.1742 -1.7115 0.48768
            CHANNELS 3 Zrotation Xrotation Yrotation
            JOINT rHand
            {
              OFFSET -22.5879 0.773209 7.07136
              CHANNELS 3 Zrotation Xrotation Yrotation
              JOINT rThumb1
              {
                OFFSET -1.2192 -0.487915 3.41376
                CHANNELS 3 Zrotation Xrotation Yrotation
                JOINT rThumb2
                {
                  OFFSET -3.37035 -0.52449 3.41376
                  CHANNELS 3 Zrotation Xrotation Yrotation
                  End Site
                  {
                    OFFSET -1.78271 -1.18214 1.43049
                  }
                }
              }
              JOINT rIndex1
              {
                OFFSET -7.75947 0.938293 5.60832
                CHANNELS 3 Zrotation Xrotation Yrotation
                JOINT rIndex2
                {
                  OFFSET -2.54057 -0.884171 1.56538
                  CHANNELS 3 Zrotation Xrotation Yrotation
                  End Site
                  {
                    OFFSET -1.62519 -0.234802 1.16502
                  }
                }
              }
              JOINT rMid1
              {
                OFFSET -8.24714 1.18213 3.41376
                CHANNELS 3 Zrotation Xrotation Yrotation
                JOINT rMid2
                {
                  OFFSET -3.10165 -0.590103 1.0647
                  CHANNELS 3 Zrotation Xrotation Yrotation
                  End Site
                  {
                    OFFSET -2.48547 -0.328903 0.83742
                  }
                }
              }
              JOINT rRing1
              {
                OFFSET -8.82822 0.546677 1.51678
                CHANNELS 3 Zrotation Xrotation Yrotation
                JOINT rRing2
                {
                  OFFSET -2.60934 -0.819778 -0.0198488
                  CHANNELS 3 Zrotation Xrotation Yrotation
                  End Site
                  {
                    OFFSET -2.33842 -0.294052 0.168128
                  }
                }
              }
              JOINT rPinky1
              {
                OFFSET -8.27202 -0.0477905 -0.4584
                CHANNELS 3 Zrotation Xrotation Yrotation
                JOINT rPinky2
                {
                  OFFSET -1.82734 -0.647385 -0.700984
                  CHANNELS 3 Zrotation Xrotation Yrotation
                  End Site
                  {
                    OFFSET -1.69225 -0.51767 -0.607171
                  }
                }
              }
            }
          }
        }
      }
      JOINT lCollar
      {
        OFFSET 2.68224 19.2634 -4.8768
        CHANNELS 3 Zrotation Xrotation Yrotation
        JOINT lShldr
        {
          OFFSET 8.77824 -1.95073 1.46304
          CHANNELS 3 Zrotation Xrotation Yrotation
          JOINT lForeArm
          {
            OFFSET 28.1742 -1.7115 0.48768
            CHANNELS 3 Zrotation Xrotation Yrotation
            JOINT lHand
            {
              OFFSET 22.5879 0.773209 7.07136
              CHANNELS 3 Zrotation Xrotation Yrotation
              JOINT lThumb1
              {
                OFFSET 1.2192 -0.487915 3.41376
                CHANNELS 3 Zrotation Xrotation Yrotation
                JOINT lThumb2
                {
                  OFFSET 3.37035 -0.52449 3.41376
                  CHANNELS 3 Zrotation Xrotation Yrotation
                  End Site
                  {
                    OFFSET 1.78271 -1.18214 1.43049
                  }
                }
              }
              JOINT lIndex1
              {
                OFFSET 7.75947 0.938293 5.60832
                CHANNELS 3 Zrotation Xrotation Yrotation
                JOINT lIndex2
                {
                  OFFSET 2.54057 -0.884171 1.56538
                  CHANNELS 3 Zrotation Xrotation Yrotation
                  End Site
                  {
                    OFFSET 1.62519 -0.234802 1.16502
                  }
                }
              }
              JOINT lMid1
              {
                OFFSET 8.24714 1.18213 3.41376
                CHANNELS 3 Zrotation Xrotation Yrotation
                JOINT lMid2
                {
                  OFFSET 3.10165 -0.590103 1.0647
                  CHANNELS 3 Zrotation Xrotation Yrotation
                  End Site
                  {
                    OFFSET 2.48547 -0.328903 0.83742
                  }
                }
              }
              JOINT lRing1
              {
                OFFSET 8.82822 0.546677 1.51678
                CHANNELS 3 Zrotation Xrotation Yrotation
                JOINT lRing2
                {
                  OFFSET 2.60934 -0.819778 -0.0198488
                  CHANNELS 3 Zrotation Xrotation Yrotation
                  End Site
                  {
                    OFFSET 2.33842 -0.294052 0.168128
                  }
                }
              }
              JOINT lPinky1
              {
                OFFSET 8.27202 -0.0477905 -0.4584
                CHANNELS 3 Zrotation Xrotation Yrotation
                JOINT lPinky2
                {
                  OFFSET 1.82734 -0.647385 -0.700984
                  CHANNELS 3 Zrotation Xrotation Yrotation
                  End Site
                  {
                    OFFSET 1.69225 -0.51767 -0.607171
                  }
                }
              }
            }
          }
        }
      }
    }
  }
  JOINT rButtock
  {
    OFFSET -8.77824 4.35084 1.2192
    CHANNELS 3 Zrotation Xrotation Yrotation
    JOINT rThigh
    {
      OFFSET 0 -1.70687 -2.19456
      CHANNELS 3 Zrotation Xrotation Yrotation
      JOINT rShin
      {
        OFFSET 0 -36.8199 0.73152
        CHANNELS 3 Zrotation Xrotation Yrotation
        JOINT rFoot
        {
          OFFSET 0.73152 -45.1104 -5.12064
          CHANNELS 3 Zrotation Xrotation Yrotation
          End Site
          {
            OFFSET -1.1221 -3.69964 12.103
          }
        }
      }
    }
  }
  JOINT lButtock
  {
    OFFSET 8.77824 4.35084 1.2192
    CHANNELS 3 Zrotation Xrotation Yrotation
    JOINT lThigh
    {
      OFFSET 0 -1.70687 -2.19456
      CHANNELS 3 Zrotation Xrotation Yrotation
      JOINT lShin
      {
        OFFSET 0 -36.8199 0.73152
        CHANNELS 3 Zrotation Xrotation Yrotation
        JOINT lFoot
        {
          OFFSET -0.73152 -45.1104 -5.12064
          CHANNELS 3 Zrotation Xrotation Yrotation
          End Site
          {
            OFFSET 1.1221 -3.69964 12.103
          }
        }
      }
    }
  }
}
MOTION
Frames:	4
Frame Time:	0.03333
-2.9130175176807875 67.79908732437703 66.77574825556434 136.72146606445312 -56.037086486816406 -129.38653564453125 -9.301055908203125 31.227874755859375 14.10770034790039 -7.87870979309082 -10.32780647277832 2.0440266132354736 2.48132061958313 12.366571426391602 12.06591796875 -10.040441513061523 -13.459298133850098 22.144939422607422 -0.09547075629234314 -0.09682926535606384 0.12816232442855835 -0.09360084682703018 0.05279349535703659 -0.12599797546863556 0.10117792338132858 -0.027429940178990364 0.05272737890481949 17.062320709228516 60.803733825683594 33.80398178100586 -28.11458969116211 -37.20721435546875 79.41483306884766 -0.15744057297706604 7.978870868682861 1.0531758069992065 0.016614841297268867 -0.12084700167179108 0.04898172616958618 -0.01804506964981556 0.015808766707777977 0.11125782877206802 0.06119343265891075 0.3092265725135803 -0.08617664873600006 7.54534912109375 5.368345260620117 0.3780777156352997 0.12887324392795563 -0.2157616913318634 -0.27807214856147766 2.8652596473693848 0.9603993892669678 0.21673054993152618 0.10474956035614014 -0.05785026773810387 0.00434802146628499 10.263434410095215 0.601140022277832 -0.08156883716583252 0.06144270673394203 -0.05436775088310242 -0.05665680766105652 2.1215944290161133 -0.7326073050498962 -0.19309593737125397 -0.11886215209960938 -0.01927235536277294 -0.0842420905828476 -61.111785888671875 1.12837553024292 4.481524467468262 28.333236694335938 -37.59249496459961 -79.85718536376953 1.1071940660476685 -30.675382614135742 4.63859224319458 0.06705369800329208 -0.15360285341739655 0.21935071051120758 -0.029209909960627556 0.12572969496250153 0.04275720193982124 -0.11671764403581619 -0.024187836796045303 -0.33816125988960266 -7.697812557220459 5.709079265594482 -0.3098365068435669 0.07186299562454224 -0.11364003270864487 -0.0641317144036293 -2.844088315963745 1.1445868015289307 0.013544922694563866 0.11906565725803375 -0.3214779198169708 0.18074442446231842 -10.214166641235352 0.6265788078308105 -0.2350008487701416 -0.28885310888290405 -0.1280955672264099 -0.11507587134838104 -2.2354981899261475 -0.5724580883979797 0.23722638189792633 -0.08705794811248779 -0.15068404376506805 0.09567756950855255 -47.157127380371094 -48.71904373168945 -29.387449264526367 -0.7862486839294434 58.34016036987305 1.7020893096923828 0.9483721852302551 -12.411273002624512 -1.495947241783142 0.3295198976993561 -0.09583541750907898 -0.0364229679107666 70.96814727783203 -45.038639068603516 67.79077911376953 173.87327575683594 82.74163818359375 -176.4634246826172 -3.3637890815734863 -8.336565017700195 -10.205049514770508
-3.530229643102252 66.62232769265387 67.25882170890654 139.313232421875 -56.38129425048828 -132.39944458007812 -9.088404655456543 30.658485412597656 13.590837478637695 -7.818624973297119 -10.164790153503418 1.9933550357818604 2.357508420944214 12.576338768005371 12.239740371704102 -9.515000343322754 -13.643635749816895 22.711992263793945 -0.10217180103063583 -0.07174141705036163 0.11922363191843033 -0.09171424806118011 -0.0008327141986228526 -0.11244185268878937 0.09480530023574829 -0.0017042282270267606 0.15200546383857727 19.798851013183594 62.40692901611328 30.886688232421875 -28.139705657958984 -37.517784118652344 79.71553039550781 -0.2609715461730957 7.524190902709961 0.9761886596679688 -0.01873483508825302 -0.10637286305427551 0.010951162315905094 -0.06336367130279541 0.0075658950954675674 0.04522894322872162 0.03170385956764221 0.31168925762176514 -0.07798127084970474 7.506271839141846 5.3743743896484375 0.3866625130176544 0.15019075572490692 -0.16362614929676056 -0.23879700899124146 2.8773727416992188 0.9661250710487366 0.23616382479667664 0.13751064240932465 -0.030867403373122215 -0.0004769327351823449 10.337475776672363 0.6528720855712891 -0.036035288125276566 0.056608062237501144 -0.012576544657349586 -0.06086573377251625 2.1147704124450684 -0.6872262358665466 -0.20593583583831787 -0.1126934215426445 -0.02300914004445076 -0.15340931713581085 -61.14570236206055 3.763653039932251 3.13948392868042 28.28651237487793 -38.34796142578125 -80.93975067138672 1.0428459644317627 -28.9788875579834 4.341849327087402 0.08739381283521652 -0.15460561215877533 0.17377185821533203 -0.05138150975108147 0.06076399236917496 0.0525369867682457 -0.16760340332984924 -0.06558195501565933 -0.3226414620876312 -7.734252452850342 5.687692165374756 -0.30523473024368286 0.048121944069862366 -0.0839492529630661 0.01922363042831421 -2.7830779552459717 1.0738633871078491 0.025765685364603996 0.1375945508480072 -0.24328848719596863 0.1453685760498047 -10.199033737182617 0.6029844284057617 -0.25177961587905884 -0.270507276058197 -0.11998596787452698 -0.11438176035881042 -2.246995687484741 -0.5367047786712646 0.21681493520736694 -0.0746738463640213 -0.16990886628627777 0.020580338314175606 -47.72964096069336 -49.552711486816406 -30.339853286743164 -0.8272477984428406 60.74318313598633 1.7123734951019287 1.204149603843689 -13.373835563659668 -0.5833339095115662 0.25795355439186096 -0.054328132420778275 -0.0038571094628423452 62.02315902709961 -46.01066970825195 58.683719635009766 139.3023223876953 88.94853973388672 -141.80091857910156 -3.3345324993133545 -6.4917402267456055 -11.163400650024414
-4.205249394729238 65.36610564012678 67.7669972813873 142.1071319580078 -56.424217224121094 -135.3471221923828 -9.063749313354492 30.10106658935547 13.2735013961792 -7.847227096557617 -9.94946002960205 2.002012252807617 2.263570785522461 12.802192687988281 12.525216102600098 -9.074721336364746 -13.816086769104004 23.41754913330078 -0.0727614313364029 -0.024592235684394836 0.10699068009853363 -0.09673032909631729 -0.07352189719676971 -0.09467155486345291 0.09427396208047867 0.0027060031425207853 0.24989932775497437 22.751089096069336 63.74067306518555 27.90123176574707 -28.177221298217773 -37.74727249145508 79.85889434814453 -0.331522673368454 7.328492641448975 0.9610461592674255 -0.04644932225346565 -0.09119842201471329 -0.03047565370798111 -0.09302368015050888 -0.017457375302910805 -0.013856191188097 0.008916771039366722 0.3061363697052002 -0.0671139806509018 7.481980800628662 5.403578758239746 0.40169551968574524 0.1602344512939453 -0.13485626876354218 -0.18119658529758453 2.9265170097351074 0.9616062045097351 0.25443902611732483 0.15501351654529572 -0.021151216700673103 -0.005471257027238607 10.394122123718262 0.6946032643318176 0.02456049621105194 0.04854079335927963 0.0619717501103878 -0.05864053964614868 2.1102676391601562 -0.6619856357574463 -0.242903470993042 -0.11751876026391983 -0.04331791400909424 -0.20749130845069885 -61.18370056152344 6.2988996505737305 1.7436927556991577 28.228981018066406 -38.987274169921875 -81.9236831665039 0.9830722212791443 -27.47126007080078 4.105967044830322 0.09079442173242569 -0.13755273818969727 0.1314571052789688 -0.038857635110616684 0.004513071849942207 0.046329230070114136 -0.21918797492980957 -0.08657073229551315 -0.27979105710983276 -7.770252704620361 5.662851333618164 -0.31217241287231445 0.001833236077800393 -0.0565280057489872 0.09421415627002716 -2.749795436859131 0.9904465675354004 0.03246019408106804 0.1447005718946457 -0.17383462190628052 0.0980258658528328 -10.194211959838867 0.5979400873184204 -0.24625590443611145 -0.24718303978443146 -0.11943615972995758 -0.11533473432064056 -2.2426705360412598 -0.533249020576477 0.17566542327404022 -0.03981192782521248 -0.18006004393100739 -0.021242262795567513 -48.628501892089844 -50.43325424194336 -31.314838409423828 -0.9545256495475769 63.21296691894531 1.8592404127120972 1.4901195764541626 -14.50894832611084 0.5101059675216675 0.175865039229393 -0.012686772271990776 -0.006236501503735781 53.10121536254883 -45.78012466430664 49.35108184814453 6.5194993019104 84.41120910644531 -8.989032745361328 -3.3845105171203613 -4.5326008796691895 -11.943310737609863
-4.908921469759309 64.1382152122769 68.31633797710892 144.71456909179688 -56.07233810424805 -138.30067443847656 -9.280173301696777 29.61663246154785 13.231873512268066 -7.962123870849609 -9.690312385559082 2.0746147632598877 2.2361083030700684 13.07628059387207 12.949423789978027 -8.789692878723145 -13.98163890838623 24.244781494140625 -0.026910550892353058 0.03762456402182579 0.08492912352085114 -0.11776251345872879 -0.13906122744083405 -0.07478256523609161 0.11163917928934097 -0.000761783798225224 0.3328987956047058 26.439132690429688 64.86759185791016 24.37213706970215 -28.206148147583008 -37.942535400390625 80.00234985351562 -0.36295902729034424 7.273568630218506 0.9743854999542236 -0.08442267030477524 -0.07386581599712372 -0.05276988819241524 -0.09851434826850891 -0.05338257551193237 -0.050786521285772324 6.898299761814997e-05 0.2868773937225342 -0.06271795183420181 7.491540908813477 5.439085960388184 0.41205641627311707 0.14816699922084808 -0.11362038552761078 -0.12822271883487701 3.0048084259033203 0.9513078927993774 0.2741643786430359 0.14925308525562286 -0.023070018738508224 -0.009201670065522194 10.422012329101562 0.7257053256034851 0.08121716976165771 0.04431149736046791 0.1587359458208084 -0.06310086697340012 2.1129202842712402 -0.651576042175293 -0.286493182182312 -0.13082820177078247 -0.06340207159519196 -0.2243133783340454 -61.30140686035156 8.407685279846191 0.5095512866973877 28.139394760131836 -39.53884506225586 -82.89811706542969 0.9221727252006531 -26.27372169494629 3.953523635864258 0.07056202739477158 -0.10692960023880005 0.10149486362934113 -0.010011241771280766 -0.031203478574752808 0.024060511961579323 -0.2528855800628662 -0.09685412794351578 -0.21173705160617828 -7.802799224853516 5.635152339935303 -0.32014232873916626 -0.05529778450727463 -0.030296798795461655 0.1449570655822754 -2.73614239692688 0.9328740239143372 0.04264301806688309 0.1553206443786621 -0.1266147345304489 0.04634954407811165 -10.19655990600586 0.5977686047554016 -0.20736382901668549 -0.23465858399868011 -0.12138352543115616 -0.11339066177606583 -2.2372114658355713 -0.5627549290657043 0.1321614682674408 -0.020893467590212822 -0.1775588095188141 -0.03353561833500862 -49.60972213745117 -51.25069808959961 -32.05232620239258 -1.1432790756225586 65.57393646240234 2.136798143386841 1.7120376825332642 -15.856444358825684 1.548242211341858 0.09700522571802139 0.015651727095246315 -0.03232501074671745 45.110313415527344 -44.45520782470703 40.81485366821289 2.9854421615600586 78.49053192138672 -5.47112512588501 -3.5018157958984375 -2.725264549255371 -12.38174819946289
